HIERARCHY
ROOT Hips
{
	OFFSET 0.00000 0.00000 0.00000
	CHANNELS 6 Xposition Yposition Zposition Zrotation Yrotation Xrotation 
	JOINT LHipJoint
	{
		OFFSET 0 0 0
		CHANNELS 3 Zrotation Yrotation Xrotation
		JOINT LeftUpLeg
		{
			OFFSET 1.29432 -1.88279 0.59910
			CHANNELS 3 Zrotation Yrotation Xrotation
			JOINT LeftLeg
			{
				OFFSET 2.63039 -7.22694 0.00000
				CHANNELS 3 Zrotation Yrotation Xrotation
				JOINT LeftFoot
				{
					OFFSET 2.70674 -7.43672 0.00000
					CHANNELS 3 Zrotation Yrotation Xrotation
					JOINT LeftToeBase
					{
						OFFSET 0.15066 -0.41394 2.09027
						CHANNELS 3 Zrotation Yrotation Xrotation
						End Site
						{
							OFFSET 0.00000 -0.00000 1.07518
						}
					}
				}
			}
		}
	}
	JOINT RHipJoint
	{
		OFFSET 0 0 0
		CHANNELS 3 Zrotation Yrotation Xrotation
		JOINT RightUpLeg
		{
			OFFSET -1.37068 -1.88279 0.59910
			CHANNELS 3 Zrotation Yrotation Xrotation
			JOINT RightLeg
			{
				OFFSET -2.57023 -7.06166 0.00000
				CHANNELS 3 Zrotation Yrotation Xrotation
				JOINT RightFoot
				{
					OFFSET -2.76461 -7.59570 0.00000
					CHANNELS 3 Zrotation Yrotation Xrotation
					JOINT RightToeBase
					{
						OFFSET -0.24175 -0.64785 2.19719
						CHANNELS 3 Zrotation Yrotation Xrotation
						End Site
						{
							OFFSET -0.00000 -0.00000 1.14803
						}
					}
				}
			}
		}
	}
	JOINT LowerBack
	{
		OFFSET 0 0 0
		CHANNELS 3 Zrotation Yrotation Xrotation
		JOINT Spine
		{
			OFFSET -0.03138 2.03983 -0.23106
			CHANNELS 3 Zrotation Yrotation Xrotation
			JOINT Spine1
			{
				OFFSET -0.00325 2.06238 -0.06878
				CHANNELS 3 Zrotation Yrotation Xrotation
				JOINT Neck
				{
					OFFSET 0 0 0
					CHANNELS 3 Zrotation Yrotation Xrotation
					JOINT Neck1
					{
						OFFSET -0.00002 1.75318 0.18090
						CHANNELS 3 Zrotation Yrotation Xrotation
						JOINT Head
						{
							OFFSET 0.08806 1.75856 -0.25387
							CHANNELS 3 Zrotation Yrotation Xrotation
							End Site
							{
								OFFSET 0.02554 1.78597 -0.10684
							}
						}
					}
				}
				JOINT LeftShoulder
				{
					OFFSET 0 0 0
					CHANNELS 3 Zrotation Yrotation Xrotation
					JOINT LeftArm
					{
						OFFSET 3.09657 1.33597 -0.04414
						CHANNELS 3 Zrotation Yrotation Xrotation
						JOINT LeftForeArm
						{
							OFFSET 5.34298 -0.00000 -0.00000
							CHANNELS 3 Zrotation Yrotation Xrotation
							JOINT LeftHand
							{
								OFFSET 3.67262 -0.00000 -0.00000
								CHANNELS 3 Zrotation Yrotation Xrotation
								JOINT LeftFingerBase
								{
									OFFSET 0 0 0
									CHANNELS 3 Zrotation Yrotation Xrotation
									JOINT LeftHandIndex1
									{
										OFFSET 0.59930 -0.00000 -0.00000
										CHANNELS 3 Zrotation Yrotation Xrotation
										End Site
										{
											OFFSET 0.48317 -0.00000 -0.00000
										}
									}
								}
								JOINT LThumb
								{
									OFFSET 0 0 0
									CHANNELS 3 Zrotation Yrotation Xrotation
									End Site
									{
										OFFSET 0.49055 -0.00000 0.49055
									}
								}
							}
						}
					}
				}
				JOINT RightShoulder
				{
					OFFSET 0 0 0
					CHANNELS 3 Zrotation Yrotation Xrotation
					JOINT RightArm
					{
						OFFSET -3.16460 1.32273 -0.23382
						CHANNELS 3 Zrotation Yrotation Xrotation
						JOINT RightForeArm
						{
							OFFSET -5.54967 -0.01834 0.03348
							CHANNELS 3 Zrotation Yrotation Xrotation
							JOINT RightHand
							{
								OFFSET -3.69401 -0.00000 0.00000
								CHANNELS 3 Zrotation Yrotation Xrotation
								JOINT RightFingerBase
								{
									OFFSET 0 0 0
									CHANNELS 3 Zrotation Yrotation Xrotation
									JOINT RightHandIndex1
									{
										OFFSET -0.63811 -0.00000 0.00000
										CHANNELS 3 Zrotation Yrotation Xrotation
										End Site
										{
											OFFSET -0.51446 -0.00000 0.00000
										}
									}
								}
								JOINT RThumb
								{
									OFFSET 0 0 0
									CHANNELS 3 Zrotation Yrotation Xrotation
									End Site
									{
										OFFSET -0.52232 -0.00000 0.52232
									}
								}
							}
						}
					}
				}
			}
		}
	}
}
MOTION
Frames: 6
Frame Time: .0083333
7.2836 18.4806 -8.2044 -0.2775 54.5479 6.6176 0.0000 0.0000 0.0000 -21.4665 -0.8884 -11.5232 0.8274 5.8034 16.2151 0.4429 5.4890 -15.7829 0.4467 4.2883 11.8891 0.0000 0.0000 0.0000 10.2590 5.6049 -13.7745 -3.3549 -11.2486 33.1228 0.7617 -21.4303 -24.0669 -0.5094 -4.5751 12.7006 -5.5585 -1.4896 2.4974 -4.6951 -1.7253 4.9054 -1.7598 -0.9071 3.7059 -14.2454 -12.0386 4.4903 -1.4358 -14.7707 34.1526 0.5381 -8.3901 11.6089 -0.0000 0.0000 0.0000 -76.7973 3.0908 10.2349 20.0755 -30.7332 -5.5699 -0.0000 -0.0000 13.7123 12.2629 29.6963 6.1459 -7.1250 0.0000 -0.0000 -21.3187 58.9572 -7.4852 -0.0000 0.0000 0.0000 26.7282 1.8454 -4.0510 -80.6477 59.6669 -51.9097 0.0000 -0.0000 -30.5106 10.5547 4.3555 0.8107 7.1250 -0.0000 -0.0000 27.0796 -25.2141 14.5826
7.3072 18.4748 -8.2249 -0.0726 54.6781 6.6278 0.0000 0.0000 0.0000 -21.6619 -0.8510 -11.3456 0.8345 5.8275 16.2847 0.4861 4.8960 -15.8756 0.5851 4.8977 13.6170 0.0000 0.0000 0.0000 10.0664 5.7871 -14.0128 -3.5204 -11.4933 33.9622 1.0460 -22.3526 -22.9843 -0.3377 -3.7342 10.3300 -5.7802 -1.4867 2.6869 -4.5758 -1.7420 4.9111 -1.5078 -0.9246 3.6171 -14.4233 -12.1583 4.4161 -1.7311 -14.8238 34.2247 0.4399 -8.4600 11.6550 -0.0000 -0.0000 0.0000 -76.9998 2.9780 10.4393 20.5885 -31.3448 -5.8344 -0.0000 -0.0000 13.7447 12.6860 30.0257 6.4267 -7.1250 0.0000 -0.0000 -21.1272 59.3577 -7.6185 -0.0000 -0.0000 0.0000 25.6924 1.5243 -2.1568 -79.9112 59.6119 -51.2742 0.0000 -0.0000 -32.7068 10.9777 4.9702 0.9628 7.1250 -0.0000 -0.0000 27.2196 -24.6376 15.1006
7.3305 18.4772 -8.2431 -0.5400 54.7238 6.0684 0.0000 0.0000 0.0000 -21.4222 -0.7677 -11.2418 0.8563 5.9012 16.4981 0.5104 4.5309 -15.9155 0.7435 5.5082 15.3640 0.0000 0.0000 0.0000 10.2652 5.9298 -14.3234 -3.6829 -11.7260 34.7694 1.2810 -23.0680 -21.9445 -0.2491 -3.2112 8.8673 -5.4389 -1.4544 2.8472 -4.5380 -1.7132 4.9360 -1.6529 -0.8990 3.5397 -14.5603 -12.1635 4.4774 -1.6968 -14.8393 34.2062 0.4733 -8.4796 11.6563 0.0000 0.0000 0.0000 -76.9271 2.6341 10.2532 20.8769 -31.6844 -5.9852 -0.0000 -0.0000 14.3944 13.2638 29.6133 6.6439 -7.1250 0.0000 -0.0000 -20.2173 59.1052 -7.1500 0.0000 0.0000 0.0000 24.9272 1.2644 -0.2640 -79.6630 59.5924 -51.0602 0.0000 -0.0000 -34.7914 8.0993 4.8209 0.6852 7.1250 -0.0000 -0.0000 25.3352 -24.8937 13.6381
7.3500 18.4739 -8.2599 -1.3919 54.7577 5.3631 0.0000 0.0000 0.0000 -20.9969 -0.2911 -11.5297 0.8769 5.9699 16.6972 0.4983 4.2502 -15.5693 0.6571 5.1848 14.4364 0.0000 0.0000 0.0000 10.6694 5.9697 -14.9079 -3.8476 -11.9548 35.5722 1.1350 -22.6498 -22.6562 -0.6444 -5.1353 14.2948 -4.7977 -1.4232 2.8177 -4.5526 -1.6691 4.9435 -2.0243 -0.8559 3.5392 -14.7255 -12.0964 4.4271 -1.3746 -14.8195 34.3321 0.6048 -8.4620 11.7615 0.0000 0.0000 0.0000 -76.4678 2.0340 10.3423 21.0398 -31.8748 -6.0709 -0.0000 -0.0000 14.6927 12.8979 29.2214 6.3787 -7.1250 0.0000 -0.0000 -20.3134 58.6573 -6.9657 0.0000 0.0000 0.0000 24.4038 1.1419 1.1945 -79.5159 59.5806 -50.9333 0.0000 -0.0000 -35.9210 3.6296 4.0828 0.2588 7.1250 -0.0000 -0.0000 22.4019 -25.7051 11.3088
7.3664 18.4590 -8.2807 -1.6313 54.8351 5.1685 0.0000 0.0000 0.0000 -20.9708 -0.0430 -11.7077 0.8893 6.0109 16.8160 0.4975 4.0256 -15.4079 0.5639 4.8095 13.3662 0.0000 0.0000 0.0000 10.6911 6.1869 -15.4286 -4.0182 -12.1846 36.3882 1.2357 -22.9616 -22.2233 -0.8208 -5.7808 16.1498 -4.5549 -1.3930 2.7257 -4.6142 -1.6113 5.0366 -2.2284 -0.8183 3.6785 -14.7898 -12.0872 4.2907 -1.1089 -14.8641 34.3653 0.6929 -8.4642 11.8328 0.0000 0.0000 0.0000 -76.0594 1.4585 10.7851 21.3331 -32.2151 -6.2265 -0.0000 -0.0000 14.2244 12.9598 29.2476 6.4153 -7.1250 0.0000 -0.0000 -20.2679 58.6955 -6.9680 0.0000 0.0000 0.0000 24.0123 1.0878 1.8650 -79.1706 59.5522 -50.6356 0.0000 -0.0000 -35.1352 0.9347 3.5294 0.0575 7.1250 -0.0000 -0.0000 20.5895 -26.2777 9.9645
7.3869 18.4540 -8.3016 -1.4088 54.9487 5.2344 0.0000 0.0000 0.0000 -21.2321 -0.0298 -11.6018 0.8976 6.0381 16.8951 0.4773 4.2329 -15.2906 0.5080 4.5689 12.6829 0.0000 0.0000 0.0000 10.4479 6.4891 -15.8292 -4.1976 -12.4189 37.2303 1.5028 -23.8614 -21.2153 -0.7262 -5.4451 15.1826 -4.6134 -1.3813 2.6923 -4.6609 -1.5751 5.2082 -2.2502 -0.8019 3.8788 -14.8972 -12.1063 4.3105 -0.8909 -14.9657 34.0226 0.7880 -8.4976 11.7241 -0.0000 0.0000 0.0000 -76.1532 0.9469 10.4930 21.6432 -32.5714 -6.3927 -0.0000 -0.0000 14.7929 13.1479 28.9936 6.4597 -7.1250 0.0000 -0.0000 -19.8924 58.4995 -6.7378 -0.0000 0.0000 0.0000 23.5137 1.1932 1.9164 -78.1677 59.4643 -49.7714 0.0000 -0.0000 -32.7306 0.7185 3.7840 0.0474 7.1250 -0.0000 -0.0000 20.3907 -26.0432 9.9761
